<svg width="12" height="14" viewBox="0 0 12 14" fill="none" xmlns="http://www.w3.org/2000/svg">
<path d="M4.60606 3.65711C4.46906 3.63754 4.46253 3.63102 4.52777 3.62449C4.65173 3.60492 4.93879 3.63102 5.14103 3.67669C5.61076 3.78759 6.03482 4.07465 6.48497 4.577L6.6024 4.714L6.77203 4.68791C7.49619 4.57047 8.23993 4.66181 8.85971 4.94887C9.02933 5.02715 9.29681 5.18373 9.32943 5.22287C9.34248 5.23592 9.36205 5.32073 9.3751 5.40555C9.42077 5.71217 9.4012 5.94051 9.30334 6.11666C9.25115 6.21452 9.25115 6.24062 9.28377 6.32543C9.30986 6.39067 9.38815 6.43634 9.45991 6.43634C9.61649 6.43634 9.77959 6.18842 9.85788 5.84265L9.8905 5.70565L9.94921 5.77089C10.2819 6.14276 10.5429 6.65815 10.582 7.0235L10.5951 7.12136L10.5364 7.03654C10.4385 6.88649 10.3472 6.78863 10.2232 6.70382C10.0014 6.55377 9.76654 6.5081 9.14676 6.47548C8.5857 6.44286 8.26602 6.39719 7.95287 6.29281C7.4179 6.11666 7.1439 5.88832 6.51107 5.04673C6.23054 4.67486 6.05439 4.47261 5.87824 4.30299C5.49332 3.93112 5.10841 3.7354 4.60606 3.65711Z" fill="#FF007A"/>
<path d="M9.46645 4.48569C9.47949 4.23778 9.51211 4.07468 9.58388 3.92463C9.60997 3.86591 9.63607 3.81372 9.64259 3.81372C9.64912 3.81372 9.63607 3.85939 9.6165 3.91158C9.56431 4.05511 9.55778 4.25735 9.5904 4.48569C9.63607 4.77927 9.65564 4.81842 9.96879 5.13809C10.1123 5.28814 10.2819 5.47734 10.3472 5.55563L10.4581 5.69916L10.3472 5.59477C10.2102 5.46429 9.89703 5.21638 9.82527 5.18376C9.7796 5.15766 9.77307 5.15766 9.74045 5.19028C9.71436 5.21638 9.70783 5.25552 9.70783 5.44472C9.70131 5.7383 9.66217 5.92097 9.56431 6.11017C9.51211 6.20803 9.50559 6.18845 9.55126 6.07755C9.58388 5.99273 9.5904 5.95359 9.5904 5.67306C9.5904 5.10547 9.52516 4.96847 9.1272 4.74013C9.02934 4.68141 8.85971 4.5966 8.76185 4.55093C8.65747 4.50526 8.57918 4.46612 8.58571 4.46612C8.59875 4.45307 8.98367 4.56398 9.13372 4.62922C9.36206 4.72056 9.40121 4.72708 9.4273 4.72056C9.44687 4.70098 9.45992 4.64879 9.46645 4.48569Z" fill="#FF007A"/>
<path d="M4.87347 5.45763C4.59946 5.07924 4.42332 4.49208 4.46246 4.05497L4.47551 3.91797L4.54075 3.93102C4.65818 3.95059 4.86042 4.02888 4.95828 4.08759C5.21924 4.24417 5.33668 4.45946 5.44758 4.99443C5.4802 5.151 5.52587 5.33368 5.54544 5.39239C5.57806 5.49025 5.70202 5.71859 5.8064 5.86212C5.87817 5.9665 5.8325 6.01869 5.6694 6.00565C5.42149 5.97955 5.08876 5.75121 4.87347 5.45763Z" fill="#FF007A"/>
<path d="M9.13381 8.29578C7.84206 7.77386 7.38538 7.32371 7.38538 6.5604C7.38538 6.44949 7.3919 6.35815 7.3919 6.35815C7.39842 6.35815 7.44409 6.3973 7.50281 6.44297C7.76377 6.65173 8.05735 6.74307 8.87285 6.8605C9.3491 6.93227 9.62311 6.98446 9.87102 7.06927C10.6604 7.33023 11.1497 7.8652 11.2672 8.58936C11.2998 8.79813 11.2802 9.19609 11.228 9.40486C11.1823 9.56796 11.0519 9.86806 11.0192 9.87459C11.0127 9.87459 10.9997 9.84197 10.9997 9.78978C10.9866 9.51577 10.8496 9.25481 10.6213 9.05256C10.3473 8.8177 9.99497 8.64155 9.13381 8.29578Z" fill="#FF007A"/>
<path d="M8.22032 8.51103C8.20727 8.41317 8.17465 8.28921 8.15508 8.23702L8.12246 8.13916L8.18118 8.21092C8.26599 8.30878 8.33123 8.42622 8.38994 8.58932C8.43561 8.71327 8.43561 8.75242 8.43561 8.95466C8.43561 9.15038 8.42909 9.19605 8.38994 9.30695C8.3247 9.4831 8.24642 9.60706 8.11594 9.74406C7.88107 9.98545 7.57444 10.1159 7.13734 10.1746C7.05905 10.1812 6.83723 10.2007 6.64151 10.2138C6.15221 10.2399 5.82601 10.2921 5.53243 10.3965C5.49329 10.4095 5.45415 10.4226 5.44762 10.416C5.43457 10.403 5.63682 10.2856 5.79992 10.2073C6.02826 10.0964 6.26312 10.0376 6.77852 9.94631C7.03295 9.90716 7.29391 9.85497 7.35915 9.82887C8.00503 9.62663 8.3247 9.12428 8.22032 8.51103Z" fill="#FF007A"/>
<path d="M8.81431 9.56134C8.64469 9.18947 8.60554 8.83717 8.69688 8.50445C8.70993 8.47183 8.72297 8.43921 8.73602 8.43921C8.74907 8.43921 8.78821 8.45878 8.82736 8.48488C8.90564 8.53707 9.06875 8.6284 9.48628 8.85674C10.0147 9.1438 10.3148 9.36562 10.5236 9.62005C10.7063 9.84187 10.8172 10.0963 10.8694 10.4095C10.902 10.5856 10.8824 11.0097 10.8367 11.1858C10.6932 11.7404 10.367 12.184 9.89077 12.4384C9.819 12.4776 9.76029 12.5037 9.75376 12.5037C9.74724 12.5037 9.77334 12.4384 9.81248 12.3601C9.96906 12.0274 9.98863 11.7077 9.8712 11.3489C9.79943 11.1271 9.64938 10.8596 9.34928 10.4095C8.99046 9.88754 8.90565 9.75053 8.81431 9.56134Z" fill="#FF007A"/>
<path d="M3.95365 11.5577C4.43643 11.1532 5.03011 10.8662 5.57813 10.7748C5.81299 10.7357 6.20443 10.7487 6.41972 10.8074C6.7655 10.8988 7.07865 11.0945 7.24175 11.3359C7.39832 11.5707 7.47009 11.773 7.54185 12.2231C7.56795 12.3993 7.60057 12.582 7.60709 12.6211C7.65928 12.856 7.76367 13.0386 7.89415 13.1365C8.09639 13.2866 8.44869 13.2931 8.79446 13.1626C8.85317 13.143 8.90537 13.1235 8.90537 13.13C8.91841 13.143 8.74227 13.2605 8.62483 13.3192C8.46173 13.404 8.33125 13.4301 8.15511 13.4301C7.84195 13.4301 7.57447 13.267 7.35918 12.9408C7.31351 12.8755 7.22218 12.6863 7.14389 12.5102C6.91555 11.9818 6.79812 11.8252 6.53063 11.649C6.29577 11.499 5.99566 11.4664 5.76732 11.5773C5.46722 11.7208 5.38893 12.1057 5.5977 12.3406C5.68251 12.4384 5.83909 12.5167 5.96957 12.5363C6.21096 12.5689 6.41972 12.3797 6.41972 12.1383C6.41972 11.9818 6.36101 11.8904 6.20443 11.8187C5.99566 11.7273 5.76732 11.8317 5.77385 12.0339C5.77385 12.1188 5.81299 12.171 5.8978 12.2101C5.95 12.2362 5.95 12.2362 5.91085 12.2297C5.72166 12.1905 5.67599 11.9557 5.82604 11.8056C6.00871 11.6229 6.39363 11.7012 6.52411 11.9557C6.5763 12.06 6.58282 12.2688 6.53716 12.3993C6.42625 12.6863 6.1131 12.8364 5.79342 12.7516C5.57813 12.6929 5.48679 12.6342 5.22583 12.3667C4.76915 11.8969 4.59301 11.8056 3.94061 11.7077L3.81665 11.6882L3.95365 11.5577Z" fill="#FF007A"/>
<path fill-rule="evenodd" clip-rule="evenodd" d="M0.522155 1.06056C2.04225 2.90685 4.38436 5.77741 4.50179 5.93398C4.59965 6.06446 4.56051 6.18842 4.39741 6.27976C4.30607 6.33195 4.11688 6.38414 4.02554 6.38414C3.92116 6.38414 3.7972 6.33195 3.71239 6.24714C3.65367 6.18842 3.39924 5.81655 2.82513 4.92277C2.38802 4.23775 2.01615 3.67016 2.00963 3.66363C1.98353 3.65059 1.98353 3.65059 2.77946 5.07282C3.2818 5.96661 3.4449 6.28628 3.4449 6.32542C3.4449 6.41024 3.41881 6.4559 3.31442 6.57334C3.13828 6.76906 3.05999 6.99087 3.00127 7.45408C2.93603 7.96947 2.75989 8.33482 2.25754 8.95459C1.96396 9.31994 1.91829 9.38518 1.84653 9.53523C1.75519 9.7179 1.72909 9.82229 1.71605 10.0571C1.703 10.3051 1.72909 10.4616 1.80086 10.6965C1.8661 10.9053 1.93786 11.0423 2.11401 11.3098C2.26406 11.5446 2.3554 11.7208 2.3554 11.786C2.3554 11.8382 2.36845 11.8382 2.60331 11.786C3.16437 11.6555 3.62758 11.4337 3.88201 11.1597C4.03859 10.9901 4.07773 10.8987 4.07773 10.6639C4.07773 10.5138 4.07121 10.4812 4.03206 10.3899C3.96682 10.2463 3.84287 10.1289 3.57538 9.94624C3.22309 9.70485 3.07304 9.50913 3.03389 9.24817C3.00127 9.02636 3.04042 8.87631 3.23614 8.46529C3.43838 8.04124 3.49057 7.86509 3.52319 7.4345C3.54276 7.1605 3.57538 7.04959 3.65367 6.96478C3.73848 6.87344 3.81025 6.84082 4.01249 6.81472C4.34522 6.76906 4.56051 6.68424 4.73013 6.52114C4.88018 6.38414 4.94542 6.24714 4.95195 6.04489L4.95847 5.89484L4.87366 5.8035C4.56703 5.45121 0.319911 0.780029 0.300339 0.780029C0.293815 0.780029 0.398199 0.903985 0.522155 1.06056ZM2.52502 10.3377C2.59679 10.2137 2.55764 10.0571 2.44021 9.97886C2.3293 9.9071 2.15968 9.93972 2.15968 10.0376C2.15968 10.0637 2.17273 10.0898 2.21187 10.1028C2.27059 10.1354 2.27711 10.1681 2.23144 10.2398C2.18577 10.3116 2.18577 10.3768 2.24449 10.4225C2.33583 10.4943 2.45978 10.4551 2.52502 10.3377Z" fill="#FF007A"/>
<path fill-rule="evenodd" clip-rule="evenodd" d="M5.16711 6.90608C5.01053 6.95175 4.86048 7.12138 4.81481 7.291C4.78872 7.39538 4.80177 7.58458 4.84743 7.6433C4.9192 7.73463 4.98444 7.76073 5.16711 7.76073C5.52593 7.76073 5.83256 7.60415 5.86518 7.41496C5.8978 7.25838 5.76079 7.04309 5.5716 6.94523C5.47374 6.89304 5.27149 6.87346 5.16711 6.90608ZM5.58465 7.23228C5.63684 7.154 5.61727 7.06918 5.51941 7.01047C5.34326 6.89956 5.07577 6.9909 5.07577 7.16052C5.07577 7.24533 5.21278 7.33667 5.34326 7.33667C5.42807 7.33667 5.5455 7.28448 5.58465 7.23228Z" fill="#FF007A"/>
</svg>
